<svg xmlns="http://www.w3.org/2000/svg" viewBox="0 0 32 32" width="32" height="32">
  <defs>
    <linearGradient id="fg" x1="0%" y1="100%" x2="0%" y2="0%">
      <stop offset="0%" stop-color="#D97706"/>
      <stop offset="100%" stop-color="#FBBF24"/>
    </linearGradient>
  </defs>
  <rect width="32" height="32" rx="6" fill="#1C1917"/>
  <!-- Candle body -->
  <rect x="13.5" y="16" width="5" height="10" rx="1" fill="#FEF3C7"/>
  <!-- Flame -->
  <path d="M16 6 C16 6 12 11 12 14.5 C12 17.5 14 19 16 19 C18 19 20 17.5 20 14.5 C20 11 16 6 16 6Z" fill="url(#fg)"/>
  <!-- Inner flame -->
  <path d="M16 10 C16 10 14 13 14 15 C14 17 15 17.5 16 17.5 C17 17.5 18 17 18 15 C18 13 16 10 16 10Z" fill="#FDE68A"/>
</svg>
