<svg xmlns="http://www.w3.org/2000/svg" viewBox="0 0 300 80" width="300" height="80">
  <defs>
    <linearGradient id="flameGradW" x1="0%" y1="100%" x2="0%" y2="0%">
      <stop offset="0%" style="stop-color:#C41E3A;stop-opacity:1" />
      <stop offset="40%" style="stop-color:#E8A521;stop-opacity:1" />
      <stop offset="100%" style="stop-color:#EEC621;stop-opacity:1" />
    </linearGradient>
  </defs>
  <!-- Flame icon -->
  <path d="M24 6 C21 14, 12 17, 12 28 C12 36, 17 42, 24 44 C31 42, 36 36, 36 28 C36 17, 27 14, 24 6Z" fill="url(#flameGradW)"/>
  <path d="M24 20 C23 24, 18 25, 18 30 C18 34, 21 36, 24 36 C27 36, 30 34, 30 30 C30 25, 25 24, 24 20Z" fill="#FDF8F0" opacity="0.5"/>
  <!-- Text "Candela" -->
  <text x="48" y="38" font-family="'Georgia', serif" font-size="32" font-weight="bold" fill="#FFFFFF" letter-spacing="3">CANDELA</text>
  <text x="48" y="56" font-family="'Georgia', serif" font-size="11" fill="#E8A521" letter-spacing="6">RISTORANTE  &amp;  CAFFÈ</text>
</svg>
